<?xml version="1.0" encoding="UTF-8"?>
<svg id="Ebene_1" data-name="Ebene 1" xmlns="http://www.w3.org/2000/svg" viewBox="0 0 3000 3000">
  <defs>
    <style>
      .cls-1 {
        fill: #fff;
      }
    </style>
  </defs>
  <path class="cls-1" d="M1096.58,2365.11c-403.72,0-591.15-156.19-591.15-490.23v-747.34c0-336.44,187.43-492.64,591.15-492.64h586.34c60.08,0,86.51,26.43,86.51,86.51v290.78c0,60.07-26.42,86.52-86.51,86.52h-483.01c-100.93,0-146.59,38.44-146.59,120.15v571.94c0,79.29,45.66,115.34,146.59,115.34h483.01c60.08,0,86.51,26.45,86.51,86.52v285.96c0,60.1-26.42,86.52-86.51,86.52h-586.34Z"/>
  <g>
    <path class="cls-1" d="M1317.07,459.49h483c100.93,0,146.59,36.04,146.59,115.34v458.19c0,33.87,26.12,62.18,59.91,64.51,230.97,15.93,385.32,85.82,486.47,182.95.71-13.94,1.53-27.78,1.53-42.4V490.73C2494.57,156.69,2307.13.5,1903.42.5h-586.37c-47.77,0-86.5,38.73-86.5,86.5v285.98c0,47.78,38.74,86.52,86.52,86.52Z"/>
    <path class="cls-1" d="M1903.41,1269.28c403.73,0,591.15,156.19,591.15,490.23v747.34c0,336.43-187.42,492.64-591.15,492.64h-586.32c-60.1,0-86.52-26.45-86.52-86.52v-290.77c0-60.07,26.42-86.52,86.52-86.52h483c100.93,0,146.59-38.44,146.59-120.15v-571.94c0-79.29-45.66-115.34-146.59-115.34h-483c-60.1,0-86.52-26.45-86.52-86.52v-285.96c0-60.1,26.42-86.52,86.52-86.52h586.32Z"/>
  </g>
</svg>